PathFileType	4	(X/Y/Z)	Run_400 05
DataRate	CameraRate	NumFrames	NumMarkers	Units	OrigDataRate	OrigDataStartFrame	OrigNumFrames
120	120	4	42	mm	120	119	128
Frame#	Time	LASI			RASI			LPSI			RPSI			RTH1			RTH2			RTH3			LTH1			LTH2			LTH3			RTB1			RTB2			RTB3			LTB1			LTB2			LTB3			RCAL			RTOE			RMT5			LCAL			LTOE			LMT5			LACR			RACR			CLAV			C7			RUA1			RUA2			RUA3			RLEL			RMEL			LUA1			LUA2			LUA3			LLEL			LMEL			RFAsuperior			RFAradius			RFAulna			LFAsuperior			LFAradius			LFAulna		
		X1	Y1	Z1	X2	Y2	Z2	X3	Y3	Z3	X4	Y4	Z4	X5	Y5	Z5	X6	Y6	Z6	X7	Y7	Z7	X8	Y8	Z8	X9	Y9	Z9	X10	Y10	Z10	X11	Y11	Z11	X12	Y12	Z12	X13	Y13	Z13	X14	Y14	Z14	X15	Y15	Z15	X16	Y16	Z16	X17	Y17	Z17	X18	Y18	Z18	X19	Y19	Z19	X20	Y20	Z20	X21	Y21	Z21	X22	Y22	Z22	X23	Y23	Z23	X24	Y24	Z24	X25	Y25	Z25	X26	Y26	Z26	X27	Y27	Z27	X28	Y28	Z28	X29	Y29	Z29	X30	Y30	Z30	X31	Y31	Z31	X32	Y32	Z32	X33	Y33	Z33	X34	Y34	Z34	X35	Y35	Z35	X36	Y36	Z36	X37	Y37	Z37	X38	Y38	Z38	X39	Y39	Z39	X40	Y40	Z40	X41	Y41	Z41	X42	Y42	Z42	

119	  0.991667	945.276139	1001.128693	-426.508358	912.773115	1025.126195	-164.603865	757.746335	1045.972341	-363.069148	745.295315	1050.376079	-282.931953	844.519650	858.358119	-119.403633	903.510700	750.293398	-127.743221	840.236285	633.485690	-172.631509	955.223247	804.866888	-469.247581	1073.301200	730.305982	-454.750918	1067.814182	610.545725	-437.115350	850.298337	346.678569	-274.149012	801.056344	291.626941	-213.185596	751.655814	213.937959	-290.579311	1033.093439	455.469105	-368.823914	944.505290	459.908052	-424.864634	835.167853	417.588405	-363.560423	559.379869	121.722314	-312.698402	786.132656	 65.259449	-333.579007	714.160741	 48.744544	-237.470863	673.685661	493.134454	-356.905868	710.692982	262.306358	-346.837516	674.011266	325.775011	-435.254648	970.935489	1475.196417	-466.447403	971.284692	1466.809444	-120.322323	1008.861082	1416.108346	-260.603708	888.682830	1515.119805	-286.531222	954.737496	1362.414010	-37.764028	959.874130	1272.080855	-38.544296	890.281417	1263.500027	 -1.106465	892.706521	1136.060270	 58.076042	857.282828	1110.791630	-14.320060	934.959342	1390.712383	-545.325977	921.779498	1318.598419	-540.288669	827.246453	1342.144875	-557.888005	776.841741	1192.620307	-619.342652	719.122410	1198.002109	-552.682429	999.848613	1136.312762	 32.281222	1132.561733	1146.416935	-86.289854	1144.217489	1096.919341	-34.465649	857.959363	1150.483498	-581.959796	975.993401	1103.310973	-458.341689	956.467029	1039.366998	-485.404067	
120	  1.000000	946.498633	1006.460630	-424.535141	912.071939	1026.100705	-161.917937	758.490033	1050.824791	-362.840102	746.306213	1054.195190	-282.621326	839.182786	860.177659	-119.898139	892.155415	749.752051	-128.597647	822.862755	636.160811	-173.716835	960.296792	813.783823	-469.650916	1080.947952	744.324565	-454.392418	1080.186421	624.330067	-437.349675	822.423824	347.141858	-274.147796	771.706083	293.330024	-213.194439	721.133788	216.127145	-289.928182	1054.079503	464.008277	-368.244979	965.060444	462.010343	-424.746809	859.239610	411.037566	-363.858389	527.619214	127.399962	-311.253435	752.860612	 65.187336	-333.426234	680.345641	 48.973551	-237.828362	691.334062	473.053556	-357.542867	749.664702	246.590085	-346.638831	707.405014	306.267262	-435.901042	965.647250	1481.481206	-467.674134	975.182550	1473.606659	-122.378997	1009.663878	1422.018158	-263.199596	887.880389	1519.381186	-286.047969	960.784038	1369.624112	-40.090859	967.835651	1279.135462	-41.856972	900.601566	1269.285416	 -0.344351	904.388724	1140.977903	 55.329583	867.837919	1116.182363	-17.186083	926.450142	1400.025191	-547.025635	913.752516	1327.979400	-543.479531	818.218107	1351.656246	-555.082399	765.759205	1203.468294	-618.261071	710.156358	1208.121974	-549.816471	1010.686004	1147.953638	 26.608407	1138.921109	1166.567893	-95.197631	1154.658862	1117.279018	-44.354693	849.255314	1162.902224	-582.226706	968.880908	1115.958681	-461.871433	950.742919	1051.840991	-489.498064	
121	  1.008333	948.057330	1012.398907	-422.756453	912.162749	1027.357943	-159.892320	759.711974	1056.496748	-362.287968	747.932368	1058.650009	-281.898804	834.836797	862.841865	-120.397633	881.324246	750.301445	-129.761239	805.853243	640.397938	-174.806831	965.141498	823.271792	-470.127052	1087.902668	758.669888	-454.038090	1091.228647	638.389623	-437.916938	794.800564	349.453351	-274.107057	742.574740	296.861298	-213.192450	690.978405	219.911294	-289.289388	1074.111875	472.049549	-368.042133	984.859289	463.580859	-424.550975	883.182256	404.119022	-364.265580	496.977763	134.738154	-309.726273	719.999472	 64.971183	-333.191300	646.833503	 49.567297	-238.382409	710.333023	451.401951	-357.310175	789.934341	231.306484	-346.697100	742.160625	286.820379	-436.145897	960.286490	1488.458511	-468.676012	978.609021	1481.263174	-124.394736	1010.639800	1428.902939	-265.736322	887.325988	1524.375054	-285.581705	966.565636	1377.482082	-42.573898	975.270980	1286.959630	-45.502291	910.401859	1276.393666	 -0.293033	915.215335	1146.983056	 52.308803	877.352261	1122.802917	-20.232559	918.127732	1410.137522	-548.281288	905.948500	1338.164752	-546.383036	809.590018	1361.734306	-551.433455	754.980479	1215.098663	-616.651512	701.610295	1218.793585	-546.293694	1020.143363	1160.169680	 20.942027	1143.576938	1186.854519	-104.061816	1163.282197	1138.056307	-54.119044	840.430993	1175.827564	-582.601860	962.278139	1129.234178	-465.044279	945.264816	1064.808238	-493.096261	
122	  1.016667	949.923405	1018.854146	-421.023939	913.330266	1029.168565	-158.525219	761.404148	1062.851270	-361.435326	750.196188	1063.688348	-280.729467	831.441062	866.316413	-120.909451	871.531690	752.046556	-131.150909	789.644976	646.152839	-175.625472	969.832408	833.139606	-470.516584	1094.173021	773.017145	-453.647327	1100.941331	652.385579	-438.793534	767.743654	353.642209	-273.916587	714.010832	302.271924	-213.061712	661.569563	225.423024	-288.675859	1093.026231	479.433285	-368.387432	1004.076175	464.417987	-424.301726	907.390076	396.651271	-364.477579	467.849124	143.841104	-308.270571	687.706667	 64.511921	-332.796466	613.829843	 50.728542	-239.066211	731.189652	428.456258	-356.279579	831.165674	216.627715	-347.109627	778.013186	267.653681	-435.993441	955.201215	1495.863216	-469.412955	981.546763	1489.544773	-126.396514	1011.764260	1436.513834	-268.196915	887.093344	1529.975454	-285.259949	972.265528	1385.820700	-45.157006	982.148286	1295.291342	-49.384917	919.503825	1284.468883	 -0.972482	925.235196	1153.888556	 49.218368	885.893503	1130.378732	-23.162224	910.197935	1420.755302	-548.970910	898.397662	1348.860092	-548.674500	801.487150	1372.145377	-547.183513	744.534434	1227.141293	-614.465436	693.724947	1229.841671	-542.199717	1028.387042	1172.414777	 15.367548	1146.622165	1206.886793	-112.854856	1170.127280	1158.696691	-63.885393	831.084301	1188.406722	-583.455116	956.096023	1142.838370	-467.672430	939.894017	1078.036386	-496.247500	
